{"asset":{"generator":"3D Builder","version":"2.0"},"scene":0,"scenes":[{"nodes":[0]}],"nodes":[{"mesh":0,"matrix":[1,0,0,0,0,-1.1920928955078125E-7,-0.99999988079071045,0,0,0.99999988079071045,-1.1920928955078125E-7,0,-0.010746381245553493,1.4011458659979326E-11,-0.0098824603483080864,1]}],"meshes":[{"primitives":[{"attributes":{"POSITION":0,"TEXCOORD_0":1},"mode":4,"indices":2,"material":0}]}],"materials":[{"pbrMetallicRoughness":{"baseColorFactor":[1,1,1,1],"metallicFactor":1,"roughnessFactor":1,"baseColorTexture":{"index":0,"texCoord":0},"metallicRoughnessTexture":{"index":1,"texCoord":0}},"alphaMode":"OPAQUE"}],"textures":[{"source":0,"sampler":0},{"source":1,"sampler":0}],"images":[{"uri":"4288428950_2048x2048_6195987693227547908.png"},{"uri":"11250469_2048x2048_17319628118832143767.png"}],"samplers":[{"magFilter":9729,"wrapS":10497,"wrapT":10497}],"accessors":[{"bufferView":0,"byteOffset":0,"count":5526,"componentType":5126,"type":"VEC3","min":[-0.011767352931201458,-0.027594946324825287,-1.1920927578401574E-9],"max":[0.01472307275980711,0.023098152130842209,0.025432391092181206]},{"bufferView":1,"byteOffset":0,"count":5526,"componentType":5126,"type":"VEC2"},{"bufferView":2,"byteOffset":0,"count":24030,"componentType":5125,"type":"SCALAR"}],"bufferViews":[{"buffer":0,"byteOffset":0,"byteLength":66312,"byteStride":12,"target":34962},{"buffer":0,"byteOffset":66312,"byteLength":44208,"byteStride":8,"target":34962},{"buffer":0,"byteOffset":110520,"byteLength":96120,"target":34963}],"buffers":[{"byteLength":206640,"uri":"camera.bin"}]}